<svg width="24" height="24" viewBox="0 0 24 24" fill="none" xmlns="http://www.w3.org/2000/svg">
<path opacity="0.35" d="M4 10C4 5.582 7.582 2 12 2C16.418 2 20 5.582 20 10C20 13.564 15.936 18.652 13.601 21.28C12.75 22.238 11.25 22.238 10.399 21.28C8.064 18.652 4 13.564 4 10Z" fill="#0A0748"/>
<path d="M15.314 7.39705L12.647 5.91605C12.244 5.69205 11.755 5.69205 11.352 5.91605L8.686 7.39705C8.263 7.63205 8 8.07805 8 8.56205V12.666C8 13.403 8.597 14 9.333 14H10C10.552 14 11 13.552 11 13V11C11 10.448 11.448 10 12 10C12.552 10 13 10.448 13 11V13C13 13.552 13.448 14 14 14H14.667C15.403 14 16 13.403 16 12.667V8.56205C16 8.07805 15.737 7.63205 15.314 7.39705Z" fill="#0A0748"/>
</svg>
