<svg width="24" height="24" viewBox="0 0 24 24" fill="none" xmlns="http://www.w3.org/2000/svg">
<path d="M12 16C13.1046 16 14 15.1046 14 14C14 12.8954 13.1046 12 12 12C10.8954 12 10 12.8954 10 14C10 15.1046 10.8954 16 12 16Z" fill="#0A0748"/>
<path d="M18 16C19.1046 16 20 15.1046 20 14C20 12.8954 19.1046 12 18 12C16.8954 12 16 12.8954 16 14C16 15.1046 16.8954 16 18 16Z" fill="#0A0748"/>
<path d="M6 16C7.10457 16 8 15.1046 8 14C8 12.8954 7.10457 12 6 12C4.89543 12 4 12.8954 4 14C4 15.1046 4.89543 16 6 16Z" fill="#0A0748"/>
<path d="M12 22C13.1046 22 14 21.1046 14 20C14 18.8954 13.1046 18 12 18C10.8954 18 10 18.8954 10 20C10 21.1046 10.8954 22 12 22Z" fill="#0A0748"/>
<path d="M18 22C19.1046 22 20 21.1046 20 20C20 18.8954 19.1046 18 18 18C16.8954 18 16 18.8954 16 20C16 21.1046 16.8954 22 18 22Z" fill="#0A0748"/>
<path d="M6 22C7.10457 22 8 21.1046 8 20C8 18.8954 7.10457 18 6 18C4.89543 18 4 18.8954 4 20C4 21.1046 4.89543 22 6 22Z" fill="#0A0748"/>
<path opacity="0.35" d="M19.619 4.481C18.553 3.667 15.897 2 12 2C8.103 2 5.447 3.667 4.381 4.481C3.552 5.015 3 5.941 3 7C3 8.657 4.343 10 6 10C7.657 10 9 8.657 9 7V5.943H15V7C15 8.657 16.343 10 18 10C19.657 10 21 8.657 21 7C21 5.941 20.448 5.015 19.619 4.481Z" fill="#0A0748"/>
</svg>
