<svg width="24" height="24" viewBox="0 0 24 24" fill="none" xmlns="http://www.w3.org/2000/svg">
<path opacity="0.35" fill-rule="evenodd" clip-rule="evenodd" d="M8.99101 3.89679C9.56201 2.80479 10.869 1.98779 12.342 1.98779C13.815 1.98779 15.123 2.80379 15.693 3.89679C16.869 3.52779 18.37 3.87479 19.413 4.91679C20.455 5.95879 20.802 7.45979 20.433 8.63679C21.525 9.20779 22.342 10.5148 22.342 11.9878C22.342 13.4608 21.526 14.7678 20.433 15.3388C20.802 16.5148 20.455 18.0158 19.413 19.0588C18.371 20.1008 16.87 20.4478 15.693 20.0788C15.122 21.1708 13.815 21.9878 12.342 21.9878C10.869 21.9878 9.56201 21.1718 8.99101 20.0788C7.81501 20.4478 6.31301 20.1008 5.27101 19.0588C4.22901 18.0168 3.88201 16.5148 4.25101 15.3388C3.15901 14.7678 2.34201 13.4608 2.34201 11.9878C2.34201 10.5148 3.15801 9.20679 4.25101 8.63679C3.88201 7.46079 4.22901 5.95979 5.27101 4.91679C6.31301 3.87479 7.81501 3.52879 8.99101 3.89679Z" fill="#0A0748"/>
<path d="M11 15.9998C10.744 15.9998 10.488 15.9018 10.293 15.7068L7.29301 12.7068C6.90201 12.3158 6.90201 11.6838 7.29301 11.2928C7.68401 10.9018 8.31601 10.9018 8.70701 11.2928L11 13.5858L15.293 9.29276C15.684 8.90176 16.316 8.90176 16.707 9.29276C17.098 9.68376 17.098 10.3158 16.707 10.7068L11.707 15.7068C11.512 15.9018 11.256 15.9998 11 15.9998Z" fill="#0A0748"/>
</svg>
