<svg width="108" height="108" viewBox="0 0 108 108" fill="none" xmlns="http://www.w3.org/2000/svg">
<path d="M0 0H108V108H0V0Z" fill="#3525E6"/>
<path d="M60.7454 75.5417C59.4303 75.5416 58.1447 75.1029 57.0513 74.2809C55.9578 73.4589 55.1056 72.2906 54.6023 70.9237C54.0991 69.5568 53.9674 68.0528 54.224 66.6017C54.4805 65.1506 55.1137 63.8177 56.0436 62.7715L75.3297 41.0837C76.588 39.7502 78.2584 39.0204 79.9869 39.049C81.7154 39.0776 83.3661 39.8624 84.589 41.237C85.8119 42.6116 86.511 44.4679 86.5379 46.4125C86.5648 48.3571 85.9174 50.237 84.7331 51.6537L65.4392 73.3505C64.8243 74.0465 64.0929 74.5985 63.2872 74.9746C62.4816 75.3507 61.6177 75.5434 60.7454 75.5417Z" fill="white"/>
<path d="M51.102 89.7549C50.1485 90.8271 48.9337 91.5572 47.6114 91.8529C46.2891 92.1485 44.9186 91.9964 43.6731 91.4159C42.4276 90.8353 41.3631 89.8523 40.6142 88.5912C39.8652 87.33 39.4654 85.8474 39.4654 84.3307C39.4654 82.814 39.8652 81.3313 40.6142 80.0702C41.3631 78.8091 42.4276 77.826 43.6731 77.2455C44.9186 76.6649 46.2891 76.5129 47.6114 76.8085C48.9337 77.1042 50.1485 77.8342 51.102 78.9065C51.7363 79.6181 52.2395 80.4635 52.5829 81.3943C52.9263 82.325 53.1031 83.3229 53.1031 84.3307C53.1031 85.3384 52.9263 86.3363 52.5829 87.2671C52.2395 88.1979 51.7363 89.0433 51.102 89.7549Z" fill="#F2F2F2"/>
<path d="M26.9955 70.1166C25.6821 70.1148 24.3985 69.6754 23.3068 68.8538C22.2151 68.0322 21.364 66.8654 20.861 65.5003C20.3581 64.1353 20.2258 62.6333 20.4808 61.1837C20.7358 59.7342 21.3666 58.402 22.2938 57.3554L41.5798 35.6587C42.1896 34.9291 42.9234 34.3448 43.7377 33.9402C44.552 33.5357 45.4303 33.3192 46.3204 33.3036C47.2104 33.2881 48.0942 33.4737 48.9193 33.8495C49.7444 34.2253 50.4941 34.7837 51.1238 35.4915C51.7535 36.1994 52.2504 37.0422 52.5851 37.9701C52.9199 38.8981 53.0858 39.8922 53.0727 40.8935C53.0596 41.8948 52.8678 42.883 52.5089 43.7995C52.1501 44.7159 51.6313 45.542 50.9834 46.2286L31.6973 67.9254C31.0804 68.6208 30.3474 69.1724 29.5406 69.5484C28.7337 69.9245 27.8689 70.1176 26.9955 70.1166Z" fill="white"/>
<path d="M65.5665 30.091C66.5196 29.0183 67.1686 27.6518 67.4314 26.1642C67.6942 24.6766 67.559 23.1347 67.043 21.7335C66.5269 20.3323 65.6531 19.1347 64.5321 18.2922C63.4111 17.4496 62.0932 16.9999 60.7451 16.9999C59.3969 16.9999 58.0789 17.4496 56.9579 18.2922C55.8369 19.1347 54.9631 20.3323 54.4471 21.7335C53.931 23.1347 53.7958 24.6766 54.0586 26.1642C54.3214 27.6518 54.9704 29.0183 55.9235 30.091C56.5561 30.8046 57.3076 31.3708 58.1349 31.7571C58.9623 32.1434 59.8493 32.3422 60.7451 32.3422C61.6408 32.3422 62.5278 32.1434 63.3552 31.7571C64.1826 31.3708 64.934 30.8046 65.5665 30.091Z" fill="#F2F2F2"/>
</svg>
